<svg width="20" height="20" viewBox="0 0 20 20" fill="none" xmlns="http://www.w3.org/2000/svg">
<path d="M16.4992 2.30799C16.6146 2.0003 16.4608 1.69261 16.1531 1.57722C15.8454 1.46184 15.5377 1.61569 15.4223 1.92338L14.1531 5.30799L10.3839 1.69261C10.1531 1.46184 9.80694 1.46184 9.57617 1.69261L5.8454 5.30799L4.57617 1.92338C4.46079 1.61569 4.11463 1.46184 3.8454 1.57722C3.53771 1.69261 3.38386 2.03876 3.49925 2.30799L5.07617 6.5003C5.07617 6.53876 5.07617 6.53876 5.11463 6.57722L9.46078 18.0772C9.49925 18.1157 9.49925 18.1541 9.53771 18.2311L9.57617 18.2695C9.61463 18.308 9.65309 18.3465 9.69155 18.3465C9.73002 18.3849 9.76848 18.3849 9.80694 18.4234C9.88386 18.4618 9.92232 18.4618 9.99925 18.4618C10.0762 18.4618 10.1146 18.4618 10.1916 18.4234C10.23 18.4234 10.2685 18.3849 10.3069 18.3465C10.3454 18.308 10.3839 18.2695 10.4223 18.2695L10.4608 18.2311C10.4992 18.1926 10.4992 18.1541 10.5377 18.0772L14.8839 6.57722C14.8839 6.53876 14.9223 6.53876 14.9223 6.5003L16.4992 2.30799ZM9.99925 2.92338L13.6916 6.5003L9.99925 16.2695L6.30694 6.5003L9.99925 2.92338Z" fill="#D7D6D9"/>
<path d="M19.6155 6.4227V6.34578V6.26886V6.19193C19.6155 6.15347 19.6155 6.15347 19.5771 6.11501V6.07655L19.5386 6.03809C19.5386 6.03809 19.5386 5.99962 19.5002 5.99962L16.4232 1.76886C16.3078 1.61501 16.154 1.53809 15.9617 1.53809H4.03861C3.8463 1.53809 3.69246 1.61501 3.57707 1.76886L0.50015 5.99962C0.50015 5.99962 0.50015 6.03809 0.461689 6.03809L0.423227 6.07655V6.11501C0.423227 6.15347 0.423227 6.15347 0.384766 6.19193V6.4227C0.384766 6.46116 0.384766 6.46116 0.423227 6.49962C0.423227 6.53809 0.423227 6.53809 0.461689 6.57655V6.61501L0.50015 6.65347C0.50015 6.65347 0.50015 6.69193 0.538612 6.69193L9.57707 18.2304C9.69246 18.3842 9.8463 18.4612 10.0386 18.4612C10.2309 18.4612 10.3848 18.3842 10.5001 18.2304L19.5386 6.69193C19.5386 6.69193 19.5386 6.65347 19.5771 6.65347L19.6155 6.61501V6.57655C19.6155 6.53809 19.6155 6.53809 19.654 6.49962C19.5771 6.49962 19.6155 6.46116 19.6155 6.4227ZM4.3463 2.69193H15.6925L17.9232 5.76886H2.07707L4.3463 2.69193ZM10.0001 16.9612L2.154 6.9227H17.8463L10.0001 16.9612Z" fill="#D7D6D9"/>
</svg>
