<svg width="161" height="16" viewBox="0 0 161 16" fill="none" xmlns="http://www.w3.org/2000/svg">
<line x1="0.5" y1="2.18557e-08" x2="0.499999" y2="16" stroke="white" stroke-opacity="0.4"/>
<line x1="10.5" y1="4" x2="10.5" y2="12" stroke="white" stroke-opacity="0.4"/>
<line x1="20.5" y1="4" x2="20.5" y2="12" stroke="white" stroke-opacity="0.4"/>
<line x1="30.5" y1="4" x2="30.5" y2="12" stroke="white" stroke-opacity="0.4"/>
<line x1="40.5" y1="2.18557e-08" x2="40.5" y2="16" stroke="white" stroke-opacity="0.4"/>
<line x1="50.5" y1="4" x2="50.5" y2="12" stroke="white" stroke-opacity="0.4"/>
<line x1="60.5" y1="4" x2="60.5" y2="12" stroke="white" stroke-opacity="0.4"/>
<line x1="70.5" y1="4" x2="70.5" y2="12" stroke="white" stroke-opacity="0.4"/>
<line x1="80.5" y1="2.18557e-08" x2="80.5" y2="16" stroke="white" stroke-opacity="0.4"/>
<line x1="90.5" y1="4" x2="90.5" y2="12" stroke="white" stroke-opacity="0.4"/>
<line x1="100.5" y1="4" x2="100.5" y2="12" stroke="white" stroke-opacity="0.4"/>
<line x1="110.5" y1="4" x2="110.5" y2="12" stroke="white" stroke-opacity="0.4"/>
<line x1="120.5" y1="2.18557e-08" x2="120.5" y2="16" stroke="white" stroke-opacity="0.4"/>
<line x1="130.5" y1="4" x2="130.5" y2="12" stroke="white" stroke-opacity="0.4"/>
<line x1="140.5" y1="4" x2="140.5" y2="12" stroke="white" stroke-opacity="0.4"/>
<line x1="150.5" y1="4" x2="150.5" y2="12" stroke="white" stroke-opacity="0.4"/>
<line x1="160.5" y1="2.18557e-08" x2="160.5" y2="16" stroke="white" stroke-opacity="0.4"/>
</svg>
